<svg id="visual" viewBox="0 0 900 600" width="900" height="600" xmlns="http://www.w3.org/2000/svg" xmlns:xlink="http://www.w3.org/1999/xlink" version="1.1"><rect x="0" y="0" width="900" height="600" fill="#AC66FE"></rect><path d="M0 406L30 418.3C60 430.7 120 455.3 180 472.5C240 489.7 300 499.3 360 482.2C420 465 480 421 540 408.3C600 395.7 660 414.3 720 426.7C780 439 840 445 870 448L900 451L900 601L870 601C840 601 780 601 720 601C660 601 600 601 540 601C480 601 420 601 360 601C300 601 240 601 180 601C120 601 60 601 30 601L0 601Z" fill="#ffffff" stroke-linecap="round" stroke-linejoin="miter"></path></svg>